<svg width="604.2799926757813px" height="133.39999999999998px" xmlns="http://www.w3.org/2000/svg" viewBox="-52.139996337890636 8.300000000000011 604.2799926757813 133.39999999999998" style="background: none;" preserveAspectRatio="xMidYMid"><defs><filter id="editing-neon" x="-100%" y="-100%" width="300%" height="300%"><feFlood flood-color="#00ff2f" result="flood"></feFlood><feComposite operator="in" in="flood" in2="SourceAlpha" result="color"></feComposite><feFlood flood-color="#00ff2f" result="flood2"></feFlood><feComposite operator="in" in="flood2" in2="SourceAlpha" result="color2"></feComposite><feMorphology operator="dilate" radius="2" in="color" result="dilate"></feMorphology><feGaussianBlur stdDeviation="6" in="color" result="blur1"></feGaussianBlur><feGaussianBlur stdDeviation="2.5" in="color" result="blur2"></feGaussianBlur><feGaussianBlur stdDeviation="1" in="SourceAlpha" result="blur3"></feGaussianBlur><feGaussianBlur stdDeviation="6" in="dilate" result="blur4"></feGaussianBlur><feConvolveMatrix in="color2" result="conv" order="3,3" divisor="1" kernelMatrix="1 1 1  1 1 1  1 1 1"></feConvolveMatrix><feMerge><feMergeNode in="blur1"></feMergeNode><feMergeNode in="blur2"></feMergeNode><feMergeNode in="blur4"></feMergeNode><feMergeNode in="blur3"></feMergeNode><feMergeNode in="blur3"></feMergeNode><feMergeNode in="blur3"></feMergeNode><feMergeNode in="blur3"></feMergeNode><feMergeNode in="conv"></feMergeNode><feMergeNode in="SourceGraphic"></feMergeNode></feMerge></filter></defs><g filter="url(#editing-neon)"><g transform="translate(35.185001373291016, 107.15499877929688)"><path d="M5.75 0L5.75-46.06L13.38-46.06L25.75-17.63L25.75-6.06L23.75-6.06L13.38-31.69L13.38 0L5.75 0ZM28.31-17.50L40.69-46.06L48.31-46.06L48.31 0L40.69 0L40.69-31.69L30.38-6.06L28.31-6.06L28.31-17.50ZM65.56-10.63L65.56-10.63L65.56-10.63Q65.56-7.81 66.72-6.44L66.72-6.44L66.72-6.44Q67.88-5.06 70.06-4.81L70.06-4.81L70.06 0.25L70.06 0.25Q69.81 0.31 69.25 0.31L69.25 0.31L69.25 0.31Q67.13 0.31 65.16-0.25L65.16-0.25L65.16-0.25Q63.19-0.81 61.69-2.06L61.69-2.06L61.69-2.06Q60.19-3.31 59.34-5.38L59.34-5.38L59.34-5.38Q58.50-7.44 58.50-10.44L58.50-10.44L58.50-10.44Q58.50-13.31 59.72-15.41L59.72-15.41L59.72-15.41Q60.94-17.50 62.84-18.84L62.84-18.84L62.84-18.84Q64.75-20.19 67.19-20.84L67.19-20.84L67.19-20.84Q69.63-21.50 72.13-21.50L72.13-21.50L74.88-21.50L74.88-17.06L73.50-17.06L73.50-17.06Q72.25-17.06 70.88-16.81L70.88-16.81L70.88-16.81Q69.50-16.56 68.31-15.88L68.31-15.88L68.31-15.88Q67.13-15.19 66.34-13.91L66.34-13.91L66.34-13.91Q65.56-12.63 65.56-10.63ZM85-10.94L85-10.44L85-10.44Q85-9.94 85.06-8.97L85.06-8.97L85.06-8.97Q85.13-8 85.31-7L85.31-7L85.31-7Q85.50-6 85.91-5.19L85.91-5.19L85.91-5.19Q86.31-4.38 87-4.13L87-4.13L85 0.06L85 0.06Q84.19 0.06 83.28-0.31L83.28-0.31L83.28-0.31Q82.38-0.69 81.53-1.38L81.53-1.38L81.53-1.38Q80.69-2.06 80.09-2.91L80.09-2.91L80.09-2.91Q79.50-3.75 79.19-4.75L79.19-4.75L79.19-4.75Q78.56-3.19 76.72-1.97L76.72-1.97L76.72-1.97Q74.88-0.75 72.63-0.19L72.63-0.19L72.63-4.94L72.63-4.94Q74.13-5.25 75.34-6.16L75.34-6.16L75.34-6.16Q76.56-7.06 77.44-8.31L77.44-8.31L77.44-21.50L77.44-21.50Q77.44-24.56 77.13-26.38L77.13-26.38L77.13-26.38Q76.81-28.19 76.06-29.03L76.06-29.03L76.06-29.03Q75.31-29.88 74.22-30.09L74.22-30.09L74.22-30.09Q73.13-30.31 71.63-30.31L71.63-30.31L71.63-30.31Q70.25-30.31 69.03-29.97L69.03-29.97L69.03-29.97Q67.81-29.63 66.78-29.16L66.78-29.16L66.78-29.16Q65.75-28.69 64.97-28.13L64.97-28.13L64.97-28.13Q64.19-27.56 63.81-27.25L63.81-27.25L61-31.56L61-31.56Q61.63-32.25 62.88-32.97L62.88-32.97L62.88-32.97Q64.13-33.69 65.75-34.25L65.75-34.25L65.75-34.25Q67.38-34.81 69.28-35.16L69.28-35.16L69.28-35.16Q71.19-35.50 73.25-35.50L73.25-35.50L73.25-35.50Q75.13-35.50 76.91-35.13L76.91-35.13L76.91-35.13Q78.69-34.75 80.16-33.88L80.16-33.88L80.16-33.88Q81.63-33 82.72-31.53L82.72-31.53L82.72-31.53Q83.81-30.06 84.25-27.88L84.25-27.88L84.25-27.88Q84.69-25.69 84.84-23.47L84.84-23.47L84.84-23.47Q85-21.25 85-19.06L85-19.06L85-10.94ZM96.94-35.25L103.69-35.25L104.50-31.69L104.50 0L96.94 0L96.94-35.25ZM123.19-31.38L123.19-31.38L123.19-31.38Q124.25-30.31 124.84-28.91L124.84-28.91L124.84-28.91Q125.44-27.50 125.72-25.97L125.72-25.97L125.72-25.97Q126-24.44 126.06-22.88L126.06-22.88L126.06-22.88Q126.13-21.31 126.13-19.81L126.13-19.81L126.13-1.25L126.13 0L118.50 0L118.50-19.19L118.50-19.19Q118.50-21.31 118.31-23.25L118.31-23.25L118.31-23.25Q118.13-25.19 117.44-26.69L117.44-26.69L117.44-26.69Q116.75-28.19 115.56-29.03L115.56-29.03L115.56-29.03Q114.38-29.88 112.25-29.88L112.25-29.88L112.25-29.88Q111.38-29.88 109.91-29.59L109.91-29.59L109.91-29.59Q108.44-29.31 107.06-28.69L107.06-28.69L107.06-33.50L107.06-33.50Q108.75-34.38 110.72-35L110.72-35L110.72-35Q112.69-35.63 114.56-35.63L114.56-35.63L114.56-35.63Q117.38-35.63 119.31-34.47L119.31-34.47L119.31-34.47Q121.25-33.31 123.19-31.38ZM136.56-35.25L143.31-35.25L144.13-31.69L144.13 0L136.56 0L136.56-35.25ZM162.81-31.38L162.81-31.38L162.81-31.38Q163.88-30.31 164.47-28.91L164.47-28.91L164.47-28.91Q165.06-27.50 165.34-25.97L165.34-25.97L165.34-25.97Q165.63-24.44 165.69-22.88L165.69-22.88L165.69-22.88Q165.75-21.31 165.75-19.81L165.75-19.81L165.75-1.25L165.75 0L158.13 0L158.13-19.19L158.13-19.19Q158.13-21.31 157.94-23.25L157.94-23.25L157.94-23.25Q157.75-25.19 157.06-26.69L157.06-26.69L157.06-26.69Q156.38-28.19 155.19-29.03L155.19-29.03L155.19-29.03Q154-29.88 151.88-29.88L151.88-29.88L151.88-29.88Q151-29.88 149.53-29.59L149.53-29.59L149.53-29.59Q148.06-29.31 146.69-28.69L146.69-28.69L146.69-33.50L146.69-33.50Q148.38-34.38 150.34-35L150.34-35L150.34-35Q152.31-35.63 154.19-35.63L154.19-35.63L154.19-35.63Q157-35.63 158.94-34.47L158.94-34.47L158.94-34.47Q160.88-33.31 162.81-31.38ZM202.56-35.25L210.19-35.25L210.19-35.25Q206.75-26.06 204.06-18.97L204.06-18.97L204.06-18.97Q201.38-11.88 199.38-6.53L199.38-6.53L199.38-6.53Q197.38-1.19 195.84 2.50L195.84 2.50L195.84 2.50Q194.31 6.19 193.03 8.66L193.03 8.66L193.03 8.66Q191.75 11.13 190.63 12.53L190.63 12.53L190.63 12.53Q189.50 13.94 188.31 14.69L188.31 14.69L188.31 14.69Q187.13 15.44 185.72 15.59L185.72 15.59L185.72 15.59Q184.31 15.75 182.50 15.75L182.50 15.75L182.50 15.75Q181.94 15.75 181.19 15.59L181.19 15.59L181.19 15.59Q180.44 15.44 179.72 15.22L179.72 15.22L179.72 15.22Q179 15 178.44 14.78L178.44 14.78L178.44 14.78Q177.88 14.56 177.69 14.50L177.69 14.50L177.69 14.50Q177.94 13.38 178.19 12.38L178.19 12.38L178.19 12.38Q178.38 11.50 178.59 10.72L178.59 10.72L178.59 10.72Q178.81 9.94 178.94 9.63L178.94 9.63L178.94 9.63Q179.44 9.63 180.47 9.94L180.47 9.94L180.47 9.94Q181.50 10.25 182 10.25L182 10.25L182 10.25Q183 10.25 183.78 10.16L183.78 10.16L183.78 10.16Q184.56 10.06 185.19 9.59L185.19 9.59L185.19 9.59Q185.81 9.13 186.38 8.22L186.38 8.22L186.38 8.22Q186.94 7.31 187.63 5.63L187.63 5.63L190 0L202.56-35.25ZM191.25-9.44L188.69-3.31L175.56-35.25L183.13-35.25L192.13-11.56L191.25-9.44ZM266.88-41.81L261.69-37.19L261.69-37.19Q260.25-38.81 258.63-39.63L258.63-39.63L258.63-39.63Q257-40.44 255.13-40.56L255.13-40.56L255.13-46.75L255.13-46.75Q262.13-46.44 266.88-41.81L266.88-41.81ZM255.13 0.31L255.13-5.88L255.13-5.88Q257-6.06 258.66-6.88L258.66-6.88L258.66-6.88Q260.31-7.69 261.69-9.25L261.69-9.25L266.88-4.69L266.88-4.69Q264.50-2.38 261.56-1.13L261.56-1.13L261.56-1.13Q258.63 0.13 255.13 0.31L255.13 0.31ZM234.88-23.25L234.88-23.25L234.88-23.25Q234.88-28.81 236.22-33.06L236.22-33.06L236.22-33.06Q237.56-37.31 239.94-40.25L239.94-40.25L239.94-40.25Q242.31-43.19 245.53-44.81L245.53-44.81L245.53-44.81Q248.75-46.44 252.56-46.75L252.56-46.75L252.56-40.50L252.56-40.50Q250.50-40.19 248.69-39.09L248.69-39.09L248.69-39.09Q246.88-38 245.50-35.94L245.50-35.94L245.50-35.94Q244.13-33.88 243.34-30.72L243.34-30.72L243.34-30.72Q242.56-27.56 242.50-23.25L242.50-23.25L242.50-23.25Q242.56-18.88 243.34-15.75L243.34-15.75L243.34-15.75Q244.13-12.63 245.50-10.50L245.50-10.50L245.50-10.50Q246.88-8.38 248.72-7.25L248.72-7.25L248.72-7.25Q250.56-6.13 252.56-5.88L252.56-5.88L252.56 0.25L252.56 0.25Q248.75 0 245.53-1.63L245.53-1.63L245.53-1.63Q242.31-3.25 239.94-6.19L239.94-6.19L239.94-6.19Q237.56-9.13 236.22-13.41L236.22-13.41L236.22-13.41Q234.88-17.69 234.88-23.25ZM293.81-29.56L293.81-35.44L293.81-35.44Q297.25-35.25 300.06-33.78L300.06-33.78L300.06-33.78Q302.88-32.31 304.78-29.91L304.78-29.91L304.78-29.91Q306.69-27.50 307.75-24.31L307.75-24.31L307.75-24.31Q308.81-21.13 308.81-17.50L308.81-17.50L308.81-17.50Q308.81-13.88 307.72-10.72L307.72-10.72L307.72-10.72Q306.63-7.56 304.69-5.22L304.69-5.22L304.69-5.22Q302.75-2.88 299.94-1.44L299.94-1.44L299.94-1.44Q297.13 0 293.81 0.25L293.81 0.25L293.81-5.75L293.81-5.75Q296.94-6.44 298.91-9.69L298.91-9.69L298.91-9.69Q300.88-12.94 300.88-17.50L300.88-17.50L300.88-17.50Q300.88-19.81 300.41-21.84L300.41-21.84L300.41-21.84Q299.94-23.88 299-25.50L299-25.50L299-25.50Q298.06-27.13 296.75-28.19L296.75-28.19L296.75-28.19Q295.44-29.25 293.81-29.56L293.81-29.56ZM276.38-17.63L276.38-17.63L276.38-17.63Q276.38-21.25 277.44-24.38L277.44-24.38L277.44-24.38Q278.50-27.50 280.47-29.84L280.47-29.84L280.47-29.84Q282.44-32.19 285.19-33.63L285.19-33.63L285.19-33.63Q287.94-35.06 291.25-35.38L291.25-35.38L291.25-29.56L291.25-29.56Q288.13-28.88 286.25-25.63L286.25-25.63L286.25-25.63Q284.38-22.38 284.38-17.81L284.38-17.81L284.38-17.81Q284.38-15.50 284.84-13.44L284.84-13.44L284.84-13.44Q285.31-11.38 286.19-9.75L286.19-9.75L286.19-9.75Q287.06-8.13 288.34-7.06L288.34-7.06L288.34-7.06Q289.63-6 291.25-5.75L291.25-5.75L291.25 0.25L291.25 0.25Q287.81 0 285.06-1.47L285.06-1.47L285.06-1.47Q282.31-2.94 280.38-5.31L280.38-5.31L280.38-5.31Q278.44-7.69 277.41-10.88L277.41-10.88L277.41-10.88Q276.38-14.06 276.38-17.63ZM340.38-48.56L348-48.56L348 0L340.81 0L340.38-4.19L340.38-48.56ZM316.38-18.13L316.38-18.13L316.38-18.13Q316.38-23 317.72-26.31L317.72-26.31L317.72-26.31Q319.06-29.63 321.19-31.69L321.19-31.69L321.19-31.69Q323.31-33.75 325.91-34.66L325.91-34.66L325.91-34.66Q328.50-35.56 331-35.56L331-35.56L331-35.56Q332.94-35.56 334.69-35.13L334.69-35.13L334.69-35.13Q336.44-34.69 337.81-33.88L337.81-33.88L337.81-27.25L337.81-27.25Q336.75-28.38 335.44-29.06L335.44-29.06L335.44-29.06Q334.13-29.75 332.50-29.75L332.50-29.75L332.50-29.75Q330.56-29.75 329.06-28.78L329.06-28.78L329.06-28.78Q327.56-27.81 326.53-26.13L326.53-26.13L326.53-26.13Q325.50-24.44 324.94-22.25L324.94-22.25L324.94-22.25Q324.38-20.06 324.38-17.56L324.38-17.56L324.38-17.56Q324.38-15.06 325-12.91L325-12.91L325-12.91Q325.63-10.75 326.69-9.13L326.69-9.13L326.69-9.13Q327.75-7.50 329.28-6.56L329.28-6.56L329.28-6.56Q330.81-5.63 332.63-5.63L332.63-5.63L332.63-5.63Q335.69-5.63 337.81-8.06L337.81-8.06L337.81-1.56L337.81-1.56Q336.31-0.75 334.34-0.22L334.34-0.22L334.34-0.22Q332.38 0.31 330.19 0.31L330.19 0.31L330.19 0.31Q327.69 0.31 325.28-0.59L325.28-0.59L325.28-0.59Q322.88-1.50 321-3.56L321-3.56L321-3.56Q318.63-6.25 317.50-10.22L317.50-10.22L317.50-10.22Q316.38-14.19 316.38-18.13ZM375.06-29.69L375.06-35.56L375.06-35.56Q378.44-35.25 381.16-33.75L381.16-33.75L381.16-33.75Q383.88-32.25 385.81-29.88L385.81-29.88L385.81-29.88Q387.75-27.50 388.78-24.44L388.78-24.44L388.78-24.44Q389.81-21.38 389.81-18.06L389.81-18.06L389.81-18.06Q389.81-16.56 389.63-15.06L389.63-15.06L368.19-15.06L368.19-20.56L382.63-20.56L382.63-20.56Q382.63-22.19 382.09-23.69L382.09-23.69L382.09-23.69Q381.56-25.19 380.53-26.47L380.53-26.47L380.53-26.47Q379.50-27.75 378.13-28.63L378.13-28.63L378.13-28.63Q376.75-29.50 375.06-29.69L375.06-29.69ZM374.81-5.88L374.81-5.88L374.81-5.88Q375.50-5.88 376.53-6.03L376.53-6.03L376.53-6.03Q377.56-6.19 378.72-6.59L378.72-6.59L378.72-6.59Q379.88-7 381.03-7.63L381.03-7.63L381.03-7.63Q382.19-8.25 383.06-9.13L383.06-9.13L385.81-4.94L385.81-4.94Q383.75-2.38 381-1.06L381-1.06L381-1.06Q378.25 0.25 374 0.25L374 0.25L374 0.25Q370.56 0.25 367.56-1.16L367.56-1.16L367.56-1.16Q364.56-2.56 362.44-5L362.44-5L362.44-5Q360.31-7.44 359.06-10.69L359.06-10.69L359.06-10.69Q357.81-13.94 357.81-17.69L357.81-17.69L357.81-17.69Q357.81-21.25 358.97-24.44L358.97-24.44L358.97-24.44Q360.13-27.63 362.13-30.03L362.13-30.03L362.13-30.03Q364.13-32.44 366.78-33.94L366.78-33.94L366.78-33.94Q369.44-35.44 372.50-35.63L372.50-35.63L372.50-29.63L372.50-29.63Q370.19-29.19 368.69-27.75L368.69-27.75L368.69-27.75Q367.19-26.31 366.34-24.47L366.34-24.47L366.34-24.47Q365.50-22.63 365.16-20.69L365.16-20.69L365.16-20.69Q364.81-18.75 364.81-17.38L364.81-17.38L364.81-17.38Q364.81-14.94 365.41-12.84L365.41-12.84L365.41-12.84Q366-10.75 367.25-9.22L367.25-9.22L367.25-9.22Q368.50-7.69 370.34-6.78L370.34-6.78L370.34-6.78Q372.19-5.88 374.81-5.88ZM399.38-25.19L399.38-25.19L399.38-25.19Q399.38-27.56 400.25-29.47L400.25-29.47L400.25-29.47Q401.13-31.38 402.69-32.72L402.69-32.72L402.69-32.72Q404.25-34.06 406.22-34.84L406.22-34.84L406.22-34.84Q408.19-35.63 410.31-35.81L410.31-35.81L410.31-29.56L410.31-29.56Q408.69-29.25 407.78-28.25L407.78-28.25L407.78-28.25Q406.88-27.25 406.88-25.44L406.88-25.44L406.88-25.44Q406.88-23.94 407.84-23.03L407.84-23.03L407.84-23.03Q408.81-22.13 410.31-21.44L410.31-21.44L410.31-14.75L410.31-14.75Q409.25-15.06 408.16-15.47L408.16-15.47L408.16-15.47Q407.06-15.88 406-16.38L406-16.38L406-16.38Q402.69-18.13 401.03-20.06L401.03-20.06L401.03-20.06Q399.38-22 399.38-25.19ZM422.69-33L420.25-27.81L420.25-27.81Q418.56-28.69 416.66-29.13L416.66-29.13L416.66-29.13Q414.75-29.56 412.88-29.69L412.88-29.69L412.88-35.88L412.88-35.88Q415.69-35.75 418.06-35.09L418.06-35.09L418.06-35.09Q420.44-34.44 422.69-33L422.69-33ZM399.50-2.81L402.69-7.88L402.69-7.88Q403.94-7 405.66-6.25L405.66-6.25L405.66-6.25Q407.38-5.50 410-5.50L410-5.50L410.31-5.50L410.31 0.31L410.31 0.31Q408.75 0.31 407.44 0.22L407.44 0.22L407.44 0.22Q406.13 0.13 404.84-0.22L404.84-0.22L404.84-0.22Q403.56-0.56 402.25-1.19L402.25-1.19L402.25-1.19Q400.94-1.81 399.50-2.81L399.50-2.81ZM412.88-13.81L412.88-20.44L412.88-20.44Q414.75-19.81 416.69-19.06L416.69-19.06L416.69-19.06Q418.63-18.31 420.22-17.19L420.22-17.19L420.22-17.19Q421.81-16.06 422.84-14.41L422.84-14.41L422.84-14.41Q423.88-12.75 423.88-10.25L423.88-10.25L423.88-10.25Q423.88-7.81 423-6L423-6L423-6Q422.13-4.19 420.66-2.88L420.66-2.88L420.66-2.88Q419.19-1.56 417.19-0.81L417.19-0.81L417.19-0.81Q415.19-0.06 412.88 0.19L412.88 0.19L412.88-5.75L412.88-5.75Q415-6.13 416.16-7.09L416.16-7.09L416.16-7.09Q417.31-8.06 417.31-9.69L417.31-9.69L417.31-9.69Q417.31-11.31 416.03-12.22L416.03-12.22L416.03-12.22Q414.75-13.13 412.88-13.81L412.88-13.81Z" fill="none" stroke="#e9ffd4" stroke-width="0.4"></path></g></g><style>text {
  font-size: 64px;
  font-family: Arial Black;
  dominant-baseline: central;
  text-anchor: middle;
}</style></svg>