<svg width="587.4599975585937px" height="123.239990234375px" xmlns="http://www.w3.org/2000/svg" viewBox="-43.729998779296864 13.3800048828125 587.4599975585937 123.239990234375" style="background:#596886" preserveAspectRatio="xMidYMid"><defs><filter id="editing-hover" x="-100%" y="-100%" width="300%" height="300%"><feFlood flood-color="#052b4a" result="flood"></feFlood><feComposite operator="in" in2="SourceAlpha" in="flood" result="shadow"></feComposite><feOffset dx="-4" dy="-4" in="SourceGraphic" result="offset-1"></feOffset><feOffset dx="4" dy="4" in="shadow" result="offset-2"></feOffset><feMerge><feMergeNode in="offset-2"></feMergeNode><feMergeNode in="offset-1"></feMergeNode></feMerge></filter></defs><g filter="url(#editing-hover)"><g transform="translate(43.7867870926857, 104.47000122070312)"><path d="M6.53 0L-0.83 0L10.75-42.24L24.13-42.24L27.07-18.11L38.98-42.24L50.18-42.24L51.33-10.62L51.33-10.62Q51.58-4.35 54.66-2.43L54.66-2.43L54.66-2.43Q53.95-1.15 51.90 0.06L51.90 0.06L51.90 0.06Q49.86 1.28 47.14 1.28L47.14 1.28L47.14 1.28Q44.42 1.28 42.82 0.51L42.82 0.51L42.82 0.51Q41.22-0.26 40.32-1.54L40.32-1.54L40.32-1.54Q38.72-3.84 38.72-8.26L38.72-8.26L38.72-28.03L26.11 0L18.18 0L13.70-28.74L6.53 0ZM60.19-1.92L60.19-1.92L60.19-1.92Q58.69-3.58 58.02-6.21L58.02-6.21L58.02-6.21Q57.34-8.83 57.34-13.12L57.34-13.12L57.34-13.12Q57.34-17.41 58.82-21.31L58.82-21.31L58.82-21.31Q60.29-25.22 62.98-28.03L62.98-28.03L62.98-28.03Q68.48-33.92 77.57-33.92L77.57-33.92L77.57-33.92Q80.83-33.92 83.20-32.83L83.20-32.83L94.14-33.92L89.41-8.96L89.41-8.96Q89.22-8.19 89.22-6.78L89.22-6.78L89.22-6.78Q89.22-5.38 90.08-4.48L90.08-4.48L90.08-4.48Q90.94-3.58 92.22-3.46L92.22-3.46L92.22-3.46Q91.58-1.28 89.25 0L89.25 0L89.25 0Q86.91 1.28 84.29 1.28L84.29 1.28L84.29 1.28Q81.66 1.28 79.90 0.29L79.90 0.29L79.90 0.29Q78.14-0.70 77.63-2.37L77.63-2.37L77.63-2.37Q76.61-0.77 74.43 0.26L74.43 0.26L74.43 0.26Q72.26 1.28 69.34 1.28L69.34 1.28L69.34 1.28Q66.43 1.28 64.06 0.51L64.06 0.51L64.06 0.51Q61.70-0.26 60.19-1.92ZM73.70-27.90L73.70-27.90L73.70-27.90Q72.96-26.75 72.32-24.80L72.32-24.80L72.32-24.80Q71.68-22.85 70.62-17.63L70.62-17.63L70.62-17.63Q69.57-12.42 69.57-8.70L69.57-8.70L69.57-8.70Q69.57-4.99 70.14-3.90L70.14-3.90L70.14-3.90Q70.72-2.82 71.74-2.82L71.74-2.82L71.74-2.82Q73.79-2.82 75.30-4.77L75.30-4.77L75.30-4.77Q76.80-6.72 77.38-10.18L77.38-10.18L80.77-28.93L80.77-28.93Q79.42-30.08 77.86-30.08L77.86-30.08L77.86-30.08Q76.29-30.08 75.36-29.57L75.36-29.57L75.36-29.57Q74.43-29.06 73.70-27.90ZM124.67 1.28L124.67 1.28L124.67 1.28Q116.93 1.28 116.93-4.74L116.93-4.74L116.93-4.74Q116.99-6.40 117.50-9.22L117.50-9.22L118.66-15.10L118.66-15.10Q120.38-23.42 120.38-25.28L120.38-25.28L120.38-25.28Q120.38-28.99 118.21-28.99L118.21-28.99L118.21-28.99Q114.56-28.99 112.64-19.46L112.64-19.46L108.86 0L96 1.28L102.66-32.70L113.15-33.92L112.13-27.65L112.13-27.65Q115.14-33.92 124.35-33.92L124.35-33.92L124.35-33.92Q128.83-33.92 130.72-32.03L130.72-32.03L130.72-32.03Q132.61-30.14 132.61-25.92L132.61-25.92L132.61-25.92Q132.61-21.95 130.56-12.67L130.56-12.67L130.56-12.67Q129.60-8.51 129.60-6.94L129.60-6.94L129.60-6.94Q129.60-5.38 130.46-4.48L130.46-4.48L130.46-4.48Q131.33-3.58 132.61-3.46L132.61-3.46L132.61-3.46Q131.97-1.28 129.76 0L129.76 0L129.76 0Q127.55 1.28 124.67 1.28ZM164.80 1.28L164.80 1.28L164.80 1.28Q157.06 1.28 157.06-4.74L157.06-4.74L157.06-4.74Q157.12-6.40 157.63-9.22L157.63-9.22L158.78-15.10L158.78-15.10Q160.51-23.42 160.51-25.28L160.51-25.28L160.51-25.28Q160.51-28.99 158.34-28.99L158.34-28.99L158.34-28.99Q154.69-28.99 152.77-19.46L152.77-19.46L148.99 0L136.13 1.28L142.78-32.70L153.28-33.92L152.26-27.65L152.26-27.65Q155.26-33.92 164.48-33.92L164.48-33.92L164.48-33.92Q168.96-33.92 170.85-32.03L170.85-32.03L170.85-32.03Q172.74-30.14 172.74-25.92L172.74-25.92L172.74-25.92Q172.74-21.95 170.69-12.67L170.69-12.67L170.69-12.67Q169.73-8.51 169.73-6.94L169.73-6.94L169.73-6.94Q169.73-5.38 170.59-4.48L170.59-4.48L170.59-4.48Q171.46-3.58 172.74-3.46L172.74-3.46L172.74-3.46Q172.10-1.28 169.89 0L169.89 0L169.89 0Q167.68 1.28 164.80 1.28ZM198.21-7.23L198.21-7.23L198.21-7.23Q194.88-3.78 188.80-3.78L188.80-3.78L188.80-3.78Q181.18-3.78 179.58-9.34L179.58-9.34L179.58-9.34Q179.07-11.01 179.07-12.86L179.07-12.86L179.07-12.86Q179.07-14.72 179.46-16.64L179.46-16.64L182.46-32.64L195.46-33.92L191.94-15.30L191.94-15.30Q191.81-14.46 191.62-13.57L191.62-13.57L191.62-13.57Q191.42-12.67 191.42-11.74L191.42-11.74L191.42-11.74Q191.42-10.82 191.74-10.21L191.74-10.21L191.74-10.21Q192.06-9.60 192.51-9.22L192.51-9.22L192.51-9.22Q193.28-8.70 194.66-8.70L194.66-8.70L194.66-8.70Q196.03-8.70 197.22-10.37L197.22-10.37L197.22-10.37Q198.40-12.03 198.98-14.91L198.98-14.91L202.50-32.64L215.10-33.92L210.30-8.77L210.30-8.77Q207.94 3.52 203.07 8.38L203.07 8.38L203.07 8.38Q200.58 10.88 197.34 11.87L197.34 11.87L197.34 11.87Q194.11 12.86 189.95 12.86L189.95 12.86L189.95 12.86Q183.23 12.86 179.39 10.75L179.39 10.75L179.39 10.75Q175.55 8.64 175.55 5.12L175.55 5.12L175.55 5.12Q175.55 2.50 177.54 0.99L177.54 0.99L177.54 0.99Q179.52-0.51 182.59-0.51L182.59-0.51L182.59-0.51Q185.28-0.51 187.33 0.64L187.33 0.64L187.33 0.64Q188.54 1.34 189.12 2.24L189.12 2.24L189.12 2.24Q187.65 3.52 187.65 5.63L187.65 5.63L187.65 5.63Q187.65 8.45 190.21 8.45L190.21 8.45L190.21 8.45Q194.43 8.45 196.86-1.28L196.86-1.28L196.86-1.28Q197.57-4.16 198.21-7.23ZM264.00-13.25L264.00-13.25L264.00-13.25Q265.66-12.03 265.66-9.44L265.66-9.44L265.66-9.44Q265.66-6.85 264.54-5.02L264.54-5.02L264.54-5.02Q263.42-3.20 261.25-1.79L261.25-1.79L261.25-1.79Q256.58 1.22 248.42 1.22L248.42 1.22L248.42 1.22Q240.26 1.22 235.81-3.04L235.81-3.04L235.81-3.04Q231.36-7.30 231.36-14.85L231.36-14.85L231.36-14.85Q231.36-25.54 236.93-33.66L236.93-33.66L236.93-33.66Q241.15-39.68 248.70-42.24L248.70-42.24L248.70-42.24Q252.61-43.52 256.45-43.52L256.45-43.52L256.45-43.52Q260.29-43.52 262.66-43.01L262.66-43.01L262.66-43.01Q265.02-42.50 266.82-41.47L266.82-41.47L266.82-41.47Q270.72-39.23 270.72-35.65L270.72-35.65L270.72-35.65Q270.72-32.38 267.65-29.95L267.65-29.95L267.65-29.95Q264.83-27.78 262.53-27.78L262.53-27.78L262.53-27.78Q260.22-27.78 259.26-28.10L259.26-28.10L259.26-28.10Q259.52-30.40 259.52-31.90L259.52-31.90L259.52-31.90Q259.52-33.41 259.46-34.50L259.46-34.50L259.46-34.50Q259.39-35.58 259.07-36.61L259.07-36.61L259.07-36.61Q258.43-38.98 256.48-38.98L256.48-38.98L256.48-38.98Q254.53-38.98 252.58-37.15L252.58-37.15L252.58-37.15Q250.62-35.33 248.96-32.26L248.96-32.26L248.96-32.26Q245.18-25.28 245.18-17.02L245.18-17.02L245.18-17.02Q245.18-13.06 247.42-10.78L247.42-10.78L247.42-10.78Q249.66-8.51 254.46-8.51L254.46-8.51L254.46-8.51Q258.05-8.51 261.44-10.88L261.44-10.88L261.44-10.88Q262.91-11.90 264.00-13.25ZM284.93 1.28L284.93 1.28L284.93 1.28Q270.85 1.28 270.85-11.97L270.85-11.97L270.85-11.97Q270.85-21.38 276.03-27.46L276.03-27.46L276.03-27.46Q281.54-33.92 291.07-33.92L291.07-33.92L291.07-33.92Q297.98-33.92 301.50-30.72L301.50-30.72L301.50-30.72Q305.02-27.52 305.02-20.80L305.02-20.80L305.02-20.80Q305.02-10.56 299.52-4.61L299.52-4.61L299.52-4.61Q294.14 1.28 284.93 1.28ZM286.59-26.56L286.59-26.56L286.59-26.56Q285.82-24.83 285.22-22.24L285.22-22.24L285.22-22.24Q284.61-19.65 283.84-15.55L283.84-15.55L283.84-15.55Q283.07-11.46 283.07-6.40L283.07-6.40L283.07-6.40Q283.07-4.74 283.62-3.65L283.62-3.65L283.62-3.65Q284.16-2.56 285.63-2.56L285.63-2.56L285.63-2.56Q287.10-2.56 288.03-3.26L288.03-3.26L288.03-3.26Q288.96-3.97 289.66-5.63L289.66-5.63L289.66-5.63Q290.94-8.58 291.97-14.05L291.97-14.05L291.97-14.05Q292.99-19.52 293.09-21.89L293.09-21.89L293.09-21.89Q293.18-24.26 293.18-26.02L293.18-26.02L293.18-26.02Q293.18-27.78 292.67-28.93L292.67-28.93L292.67-28.93Q292.16-30.08 290.72-30.08L290.72-30.08L290.72-30.08Q289.28-30.08 288.32-29.18L288.32-29.18L288.32-29.18Q287.36-28.29 286.59-26.56ZM328.96-33.92L328.96-33.92L328.96-33.92Q331.26-33.92 333.06-33.41L333.06-33.41L333.06-33.41Q333.12-33.66 333.25-34.37L333.25-34.37L333.57-36.35L333.57-36.35Q333.82-37.63 334.21-39.74L334.21-39.74L335.23-44.80L347.97-46.08L340.86-8.96L340.86-8.96Q340.80-8.58 340.80-7.94L340.80-7.94L340.80-6.91L340.80-6.91Q340.80-5.50 341.50-4.45L341.50-4.45L341.50-4.45Q342.21-3.39 343.36-3.39L343.36-3.39L343.36-3.39Q342.08-0.38 338.18 0.90L338.18 0.90L338.18 0.90Q336.83 1.28 334.94 1.28L334.94 1.28L334.94 1.28Q333.06 1.28 331.33 0.29L331.33 0.29L331.33 0.29Q329.60-0.70 329.09-2.37L329.09-2.37L329.09-2.37Q328.06-0.70 326.02 0.29L326.02 0.29L326.02 0.29Q323.97 1.28 320.99 1.28L320.99 1.28L320.99 1.28Q318.02 1.28 315.55 0.51L315.55 0.51L315.55 0.51Q313.09-0.26 311.55-1.92L311.55-1.92L311.55-1.92Q308.74-5.18 308.74-12.61L308.74-12.61L308.74-12.61Q308.74-22.21 314.37-28.03L314.37-28.03L314.37-28.03Q320-33.92 328.96-33.92ZM328.51-30.08L328.51-30.08L328.51-30.08Q326.14-30.08 324.86-27.52L324.86-27.52L324.86-27.52Q323.58-24.96 322.27-18.62L322.27-18.62L322.27-18.62Q320.96-12.29 320.96-6.59L320.96-6.59L320.96-6.59Q320.96-2.69 323.26-2.69L323.26-2.69L323.26-2.69Q325.31-2.69 326.75-4.74L326.75-4.74L326.75-4.74Q328.19-6.78 328.77-10.18L328.77-10.18L332.22-28.93L332.22-28.93Q330.88-30.08 328.51-30.08ZM374.72-10.82L374.72-10.82L374.72-10.82Q376.32-9.73 376.32-7.33L376.32-7.33L376.32-7.33Q376.32-4.93 375.10-3.39L375.10-3.39L375.10-3.39Q373.89-1.86 371.90-0.83L371.90-0.83L371.90-0.83Q367.81 1.28 363.39 1.28L363.39 1.28L363.39 1.28Q358.98 1.28 356.38 0.32L356.38 0.32L356.38 0.32Q353.79-0.64 352.06-2.43L352.06-2.43L352.06-2.43Q348.67-5.82 348.67-12.03L348.67-12.03L348.67-12.03Q348.67-21.70 353.92-27.58L353.92-27.58L353.92-27.58Q359.55-33.92 369.34-33.92L369.34-33.92L369.34-33.92Q375.42-33.92 378.43-31.36L378.43-31.36L378.43-31.36Q380.67-29.44 380.67-26.30L380.67-26.30L380.67-26.30Q380.67-15.04 361.22-15.04L361.22-15.04L361.22-15.04Q360.96-13.38 360.96-11.97L360.96-11.97L360.96-11.97Q360.96-9.02 362.27-7.90L362.27-7.90L362.27-7.90Q363.58-6.78 366.02-6.78L366.02-6.78L366.02-6.78Q368.45-6.78 371.04-7.90L371.04-7.90L371.04-7.90Q373.63-9.02 374.72-10.82ZM361.66-17.79L361.66-17.79L361.66-17.79Q366.21-17.79 368.83-20.61L368.83-20.61L368.83-20.61Q371.46-23.30 371.46-27.58L371.46-27.58L371.46-27.58Q371.46-29.06 370.91-29.86L370.91-29.86L370.91-29.86Q370.37-30.66 369.28-30.66L369.28-30.66L369.28-30.66Q368.19-30.66 367.26-30.24L367.26-30.24L367.26-30.24Q366.34-29.82 365.38-28.42L365.38-28.42L365.38-28.42Q363.01-25.22 361.66-17.79ZM401.98-22.46L401.98-22.46L401.98-22.46Q402.88-24.83 402.88-26.88L402.88-26.88L402.88-26.88Q402.88-30.66 399.81-30.66L399.81-30.66L399.81-30.66Q398.21-30.66 396.90-29.22L396.90-29.22L396.90-29.22Q395.58-27.78 395.58-25.98L395.58-25.98L395.58-25.98Q395.58-24.70 396.61-23.68L396.61-23.68L396.61-23.68Q398.08-22.27 401.86-19.97L401.86-19.97L401.86-19.97Q405.63-17.66 407.07-15.78L407.07-15.78L407.07-15.78Q408.51-13.89 408.51-11.30L408.51-11.30L408.51-11.30Q408.51-8.70 407.26-6.34L407.26-6.34L407.26-6.34Q406.02-3.97 403.78-2.30L403.78-2.30L403.78-2.30Q398.98 1.28 391.30 1.28L391.30 1.28L391.30 1.28Q387.14 1.28 383.94-0.90L383.94-0.90L383.94-0.90Q380.74-3.01 380.74-5.50L380.74-5.50L380.74-5.50Q380.74-8 382.56-9.47L382.56-9.47L382.56-9.47Q384.38-10.94 387.07-10.94L387.07-10.94L387.07-10.94Q389.76-10.94 391.42-9.92L391.42-9.92L391.42-9.92Q390.59-7.81 390.59-6.40L390.59-6.40L390.59-6.40Q390.59-2.18 394.18-2.18L394.18-2.18L394.18-2.18Q395.71-2.18 396.74-3.14L396.74-3.14L396.74-3.14Q397.76-4.10 397.76-5.76L397.76-5.76L397.76-5.76Q397.76-9.02 392.26-12.48L392.26-12.48L392.26-12.48Q387.78-15.42 386.75-16.58L386.75-16.58L386.75-16.58Q385.02-18.62 385.02-21.18L385.02-21.18L385.02-21.18Q385.02-23.74 386.24-26.18L386.24-26.18L386.24-26.18Q387.46-28.61 389.70-30.34L389.70-30.34L389.70-30.34Q394.37-33.92 402.50-33.92L402.50-33.92L402.50-33.92Q406.66-33.92 409.12-32.26L409.12-32.26L409.12-32.26Q411.58-30.59 411.58-27.78L411.58-27.78L411.58-27.78Q411.58-24.96 409.89-23.36L409.89-23.36L409.89-23.36Q408.19-21.76 405.12-21.76L405.12-21.76L405.12-21.76Q403.01-21.76 401.98-22.46Z" fill="#ffd5af"></path></g></g><style>text {
  font-size: 64px;
  font-family: Arial Black;
  dominant-baseline: central;
  text-anchor: middle;
}</style></svg>